<svg xmlns="http://www.w3.org/2000/svg" xmlns:xlink="http://www.w3.org/1999/xlink" width="200" height="200" viewBox="0 0 200 200">
  <defs>
    <clipPath id="clip-NODEJS">
      <rect width="200" height="200"/>
    </clipPath>
  </defs>
  <g id="NODEJS" clip-path="url(#clip-NODEJS)">
    <g id="Grupo_6" data-name="Grupo 6">
      <path id="Caminho_16" data-name="Caminho 16" d="M865.839,1932.871v-52.656l47.08-26.637L960,1880.215v52.656l-47.08,26.018Z" transform="translate(-812.839 -1806.578)" fill="#fff"/>
      <path id="Caminho_17" data-name="Caminho 17" d="M865.839,1888.352V1865.26l20.647-11.682,20.647,11.682v23.092l-20.647,11.41Z" transform="translate(-786.356 -1795.571)" fill="#86ba37"/>
      <path id="Caminho_18" data-name="Caminho 18" d="M10.9-21.328H14.59V-6.372a6.364,6.364,0,0,1-1.912,4.863A7.057,7.057,0,0,1,7.632.293,7.3,7.3,0,0,1,2.476-1.392,6.077,6.077,0,0,1,.659-6.079H4.351a3.507,3.507,0,0,0,.842,2.556,3.269,3.269,0,0,0,2.439.857,3.038,3.038,0,0,0,2.38-.989A3.947,3.947,0,0,0,10.9-6.387ZM29.971-5.493a2.575,2.575,0,0,0-.989-2.168A11.9,11.9,0,0,0,25.415-9.2a17.224,17.224,0,0,1-4.1-1.729A5.473,5.473,0,0,1,18.4-15.7a5.2,5.2,0,0,1,2.1-4.248,8.508,8.508,0,0,1,5.457-1.67,9.217,9.217,0,0,1,3.97.82,6.516,6.516,0,0,1,2.739,2.336,5.993,5.993,0,0,1,1,3.362H29.971a3.342,3.342,0,0,0-1.047-2.615,4.323,4.323,0,0,0-3-.945,4.515,4.515,0,0,0-2.82.776,2.585,2.585,0,0,0-1,2.168,2.339,2.339,0,0,0,1.084,1.956,12.488,12.488,0,0,0,3.574,1.523,16.441,16.441,0,0,1,4,1.685,6.361,6.361,0,0,1,2.212,2.168,5.646,5.646,0,0,1,.7,2.864,5.076,5.076,0,0,1-2.043,4.241A8.864,8.864,0,0,1,26.089.293a10.419,10.419,0,0,1-4.255-.857A7.148,7.148,0,0,1,18.816-2.93a5.9,5.9,0,0,1-1.077-3.516h3.706a3.45,3.45,0,0,0,1.2,2.813,5.26,5.26,0,0,0,3.442,1A4.57,4.57,0,0,0,29-3.42,2.529,2.529,0,0,0,29.971-5.493Z" transform="translate(75.161 96.423)" fill="#fff"/>
    </g>
  </g>
</svg>
