<svg xmlns="http://www.w3.org/2000/svg" xmlns:xlink="http://www.w3.org/1999/xlink" width="200" height="200" viewBox="0 0 200 200">
  <defs>
    <clipPath id="clip-NOSQL">
      <rect width="200" height="200"/>
    </clipPath>
  </defs>
  <g id="NOSQL" clip-path="url(#clip-NOSQL)">
    <path id="database-alert" d="M98.889,27.222c0,13.383-21.679,24.222-48.444,24.222S2,40.605,2,27.222,23.679,3,50.444,3,98.889,13.839,98.889,27.222M50.444,93.833C23.679,93.833,2,82.994,2,69.611V87.778C2,101.161,23.679,112,50.444,112s48.444-10.839,48.444-24.222V69.611c0,13.383-21.679,24.222-48.444,24.222m0-30.278C23.679,63.556,2,52.716,2,39.333V57.5C2,70.883,23.679,81.722,50.444,81.722S98.889,70.883,98.889,57.5V39.333c0,13.383-21.679,24.222-48.444,24.222M111,87.778h12.111V75.667H111V87.778m0-60.556V63.556h12.111V27.222Z" transform="translate(37 43)" fill="#fff"/>
  </g>
</svg>
