<svg xmlns="http://www.w3.org/2000/svg" xmlns:xlink="http://www.w3.org/1999/xlink" width="200" height="200" viewBox="0 0 200 200">
  <defs>
    <clipPath id="clip-SQL">
      <rect width="200" height="200"/>
    </clipPath>
  </defs>
  <g id="SQL" clip-path="url(#clip-SQL)">
    <path id="database" d="M45.556,3C22.6,3,4,12.3,4,23.778S22.6,44.556,45.556,44.556s41.556-9.3,41.556-20.778S68.515,3,45.556,3M4,34.167V49.75C4,61.23,22.6,70.528,45.556,70.528s41.556-9.3,41.556-20.778V34.167c0,11.48-18.6,20.778-41.556,20.778S4,45.646,4,34.167M4,60.139V75.722C4,87.2,22.6,96.5,45.556,96.5s41.556-9.3,41.556-20.778V60.139c0,11.48-18.6,20.778-41.556,20.778S4,71.619,4,60.139Z" transform="translate(54 50)" fill="#fff"/>
  </g>
</svg>
